<svg width="123" height="28" fill="none" xmlns="http://www.w3.org/2000/svg"><path d="M13.898.009C20.68.009 24.09 3.52 24.09 3.52l-3.113 4.845a10.56 10.56 0 0 0-6.448-2.44c-5.56 0-7.82 3.55-7.82 7.468 0 5.029 3.485 8.025 7.597 8.025a9.073 9.073 0 0 0 5.373-1.923v-2.033h-3.743v-5.51h9.488v14.937h-5.41v-.74c0-.554.035-1.108.035-1.108h-.072a10.992 10.992 0 0 1-6.968 2.293C6.23 27.334.002 22.268.002 13.617a13.358 13.358 0 0 1 4.016-9.785 13.418 13.418 0 0 1 9.88-3.823ZM59.593 21.344h5.633V10.326c0-.999.037-2.035.037-2.035h-.074a5.007 5.007 0 0 1-1.038 1.406l-1.594 1.441-3.742-3.993L65.968.453h5.595v20.891h5.672v5.547h-17.64v-5.547ZM83.384 12.691a6.424 6.424 0 0 1-2.408-5.065c0-3.847 2.706-7.617 8.894-7.617 4.93 0 8.968 2.736 8.968 7.654 0 2.847-2.334 5.695-2.593 6.026a6.46 6.46 0 0 1 3.113 5.584c0 4.03-3.263 8.06-9.821 8.06-6.448 0-9.82-3.992-9.82-8.207 0-3.403 2.854-5.805 3.667-6.435Zm4.373 2.663a4.757 4.757 0 0 0-1.409 3.217 3.105 3.105 0 0 0 .953 2.198 3.117 3.117 0 0 0 2.236.871c1.963 0 3.187-.96 3.187-2.7 0-1.516-2.372-2.403-4.967-3.586Zm3.818-3.956a6.653 6.653 0 0 0 .927-3.254 2.43 2.43 0 0 0-1.74-2.364 2.443 2.443 0 0 0-1.04-.077c-1.668 0-2.41.924-2.41 2.07 0 1.738 1.928 2.625 4.263 3.625ZM103.062 13.616c0-7.58 2.448-13.608 9.97-13.608S123 6.036 123 13.616c0 7.58-2.446 13.717-9.968 13.717s-9.97-6.137-9.97-13.717Zm13.267 0c0-4.289-.741-7.691-3.297-7.691-2.558 0-3.299 3.402-3.299 7.691 0 4.326.741 7.802 3.299 7.802 2.556 0 3.297-3.476 3.297-7.802Z" fill="#fff"/><g class="logo-o" data-svg-origin="42.3607873916626 13.671503057703376" style="transform-origin:0 0" fill="#fff"><path d="M35.212 13.397c-.092 4.427 2.93 7.865 6.842 8.015l-.227 5.911a13.582 13.582 0 0 1-9.67-4.277 13.521 13.521 0 0 1-3.647-9.907l6.702.258ZM49.508 13.946c.092-4.427-2.93-7.864-6.842-8.014L42.893.02a13.583 13.583 0 0 1 9.67 4.277 13.523 13.523 0 0 1 3.648 9.907l-6.703-.258Z"/></g></svg>